<svg xmlns="http://www.w3.org/2000/svg" xmlns:xlink="http://www.w3.org/1999/xlink" width="1080" zoomAndPan="magnify" viewBox="0 0 810 809.999993" height="1080" preserveAspectRatio="xMidYMid meet" version="1.0"><defs><clipPath id="6b874a969e"><path d="M 81 144.585938 L 602 144.585938 L 602 665 L 81 665 Z M 81 144.585938 " clip-rule="nonzero"/></clipPath></defs><rect x="-81" width="972" fill="#ffffff" y="-80.999999" height="971.999992" fill-opacity="1"/><rect x="-81" width="972" fill="#ffffff" y="-80.999999" height="971.999992" fill-opacity="1"/><rect x="-81" width="972" fill="#ffffff" y="-80.999999" height="971.999992" fill-opacity="1"/><g clip-path="url(#6b874a969e)"><path fill="#ffffff" d="M 601.597656 404.832031 C 601.597656 548.503906 485.066406 664.960938 341.304688 664.960938 C 197.554688 664.960938 81.015625 548.503906 81.015625 404.832031 C 81.015625 261.164062 197.554688 144.707031 341.304688 144.707031 C 485.066406 144.707031 601.597656 261.164062 601.597656 404.832031 " fill-opacity="1" fill-rule="nonzero"/><path fill="#f68a0c" d="M 341.304688 144.707031 C 197.554688 144.707031 81.015625 261.164062 81.015625 404.832031 C 81.015625 548.503906 197.554688 664.960938 341.304688 664.960938 C 485.066406 664.960938 601.597656 548.503906 601.597656 404.832031 C 601.597656 261.164062 485.066406 144.707031 341.304688 144.707031 Z M 341.304688 196.734375 C 456.132812 196.734375 549.539062 290.09375 549.539062 404.832031 C 549.539062 519.570312 456.132812 612.933594 341.304688 612.933594 C 226.488281 612.933594 133.070312 519.570312 133.070312 404.832031 C 133.070312 290.09375 226.488281 196.734375 341.304688 196.734375 " fill-opacity="1" fill-rule="nonzero"/></g><path fill="#f68a0c" d="M 341.304688 248.757812 C 255.058594 248.757812 185.132812 318.640625 185.132812 404.832031 C 185.132812 491.03125 255.058594 560.910156 341.304688 560.910156 C 427.5625 560.910156 497.476562 491.03125 497.476562 404.832031 C 497.476562 318.640625 427.5625 248.757812 341.304688 248.757812 Z M 341.304688 300.78125 C 398.707031 300.78125 445.421875 347.460938 445.421875 404.832031 C 445.421875 462.203125 398.707031 508.882812 341.304688 508.882812 C 283.902344 508.882812 237.191406 462.203125 237.191406 404.832031 C 237.191406 347.460938 283.902344 300.78125 341.304688 300.78125 " fill-opacity="1" fill-rule="nonzero"/><path fill="#f68a0c" d="M 393.359375 404.835938 C 393.359375 433.5625 370.058594 456.859375 341.304688 456.859375 C 312.558594 456.859375 289.246094 433.5625 289.246094 404.835938 C 289.246094 376.109375 312.558594 352.808594 341.304688 352.808594 C 370.058594 352.808594 393.359375 376.109375 393.359375 404.835938 " fill-opacity="1" fill-rule="nonzero"/><path fill="#4b4490" d="M 630.835938 240.191406 C 648.65625 271.019531 729.019531 257.976562 658.492188 298.671875 C 587.949219 339.378906 516.347656 347.367188 498.523438 316.527344 C 480.726562 285.699219 523.449219 227.710938 593.96875 187.011719 C 664.511719 146.316406 613.023438 209.351562 630.835938 240.191406 " fill-opacity="1" fill-rule="nonzero"/><path fill="#50616c" d="M 341.316406 417.640625 C 337.714844 417.640625 334.226562 415.777344 332.289062 412.441406 C 329.410156 407.460938 331.117188 401.09375 336.101562 398.222656 L 633.625 226.558594 C 638.589844 223.675781 644.960938 225.386719 647.847656 230.375 C 650.730469 235.347656 649.019531 241.707031 644.035156 244.585938 L 346.515625 416.253906 C 344.875 417.191406 343.085938 417.640625 341.316406 417.640625 " fill-opacity="1" fill-rule="nonzero"/></svg>